<?xml version="1.0" encoding="UTF-8" standalone="no"?>
<!-- Created with Inkscape (http://www.inkscape.org/) -->
<svg xmlns:serif="http://www.serif.com/" xmlns:dc="http://purl.org/dc/elements/1.1/" xmlns:cc="http://creativecommons.org/ns#" xmlns:rdf="http://www.w3.org/1999/02/22-rdf-syntax-ns#" xmlns:svg="http://www.w3.org/2000/svg" xmlns="http://www.w3.org/2000/svg" xmlns:sodipodi="http://sodipodi.sourceforge.net/DTD/sodipodi-0.dtd" xmlns:inkscape="http://www.inkscape.org/namespaces/inkscape" version="1.1" id="svg2" xml:space="preserve" width="993.27075" height="523.34491" viewBox="0 0 993.27076 523.34489" sodipodi:docname="logo.svg" inkscape:version="0.92.2 5c3e80d, 2017-08-06"><metadata id="metadata8"><rdf:RDF><cc:Work rdf:about=""><dc:format>image/svg+xml</dc:format><dc:type rdf:resource="http://purl.org/dc/dcmitype/StillImage"/><dc:title/></cc:Work></rdf:RDF></metadata><defs id="defs6"><clipPath clipPathUnits="userSpaceOnUse" id="clipPath20"><path d="M 17.31724,842 V 0 H 577.6828 v 842 z" id="path18" inkscape:connector-curvature="0"/></clipPath><clipPath clipPathUnits="userSpaceOnUse" id="clipPath26"><path d="M 577.6537,841.9564 V 0 H 17.31724 v 841.9564 z" id="path24" inkscape:connector-curvature="0"/></clipPath><clipPath clipPathUnits="userSpaceOnUse" id="clipPath32"><path d="M 0,0 H 595 V 842 H 0 Z" id="path30" inkscape:connector-curvature="0"/></clipPath><clipPath clipPathUnits="userSpaceOnUse" id="clipPath42"><path d="M 17.31724,842 V 0 H 577.6828 v 842 z" id="path40" inkscape:connector-curvature="0"/></clipPath><clipPath clipPathUnits="userSpaceOnUse" id="clipPath48"><path d="m 60.8138,507.6766 c 0,131.7781 106.828,238.6061 238.6061,238.6061 131.7781,0 238.6054,-106.828 238.6054,-238.6061 0,-131.778 -106.8273,-238.6053 -238.6054,-238.6053 -25.4567,0 -49.9829,3.9864 -72.9869,11.3691 l 44.0141,70.3397 c 56.4249,-28.2084 126.4597,-9.4246 160.3887,44.7973 12.5356,20.0331 18.5073,42.2873 18.5073,64.2889 0,40.9633 -20.7125,81.0367 -58.339,104.1706 -57.8367,35.5586 -134.0762,17.8461 -169.949,-39.4832 -12.5356,-20.0324 -18.5073,-42.2866 -18.5073,-64.2882 0,-35.1252 15.2286,-69.5964 43.2933,-93.2929 L 198.541,291.3821 c -38.8619,18.1545 -72.012,46.4653 -96.0526,81.5295 2.1595,22.9068 3.4421,51.5537 3.4421,82.6387 0,75.1187 -7.49164,136.0142 -16.73404,136.0142 -9.24168,0 -16.7333,-60.8955 -16.7333,-136.0142 0,-7.6339 0.07767,-15.1262 0.22647,-22.4175 -7.70866,23.4562 -11.87583,48.5079 -11.87583,74.5438" id="path46" inkscape:connector-curvature="0"/></clipPath><radialGradient fx="0" fy="0" cx="0" cy="0" r="1" gradientUnits="userSpaceOnUse" gradientTransform="matrix(0,-238.6054,-238.6054,0,299.4199,507.6766)" spreadMethod="pad" id="radialGradient62"><stop style="stop-opacity:1;stop-color:#add5cb" offset="0" id="stop58"/><stop style="stop-opacity:1;stop-color:#8fc5b8" offset="1" id="stop60"/></radialGradient><clipPath clipPathUnits="userSpaceOnUse" id="clipPath72"><path d="M 17.31724,842 V 0 H 577.6828 v 842 z" id="path70" inkscape:connector-curvature="0"/></clipPath><clipPath clipPathUnits="userSpaceOnUse" id="clipPath78"><path d="M 0,0 H 595 V 842 H 0 Z" id="path76" inkscape:connector-curvature="0"/></clipPath><clipPath clipPathUnits="userSpaceOnUse" id="clipPath88"><path d="M 17.31724,842 V 0 H 577.6828 v 842 z" id="path86" inkscape:connector-curvature="0"/></clipPath><clipPath clipPathUnits="userSpaceOnUse" id="clipPath94"><path d="m 72.46316,455.5503 c 0,75.1187 7.49162,136.0142 16.7333,136.0142 9.2424,0 16.73404,-60.8955 16.73404,-136.0142 0,-31.085 -1.2826,-59.7319 -3.4421,-82.6387 -12.60092,18.3803 -22.70274,38.6275 -29.79877,60.2212 -0.1488,7.2913 -0.22647,14.7836 -0.22647,22.4175" id="path92" inkscape:connector-curvature="0"/></clipPath><radialGradient fx="0" fy="0" cx="0" cy="0" r="1" gradientUnits="userSpaceOnUse" gradientTransform="matrix(0,-238.6054,-238.6054,0,299.4199,507.6766)" spreadMethod="pad" id="radialGradient108"><stop style="stop-opacity:1;stop-color:#98bbb2" offset="0" id="stop104"/><stop style="stop-opacity:1;stop-color:#7eada2" offset="1" id="stop106"/></radialGradient><clipPath clipPathUnits="userSpaceOnUse" id="clipPath118"><path d="M 17.31724,842 V 0 H 577.6828 v 842 z" id="path116" inkscape:connector-curvature="0"/></clipPath><clipPath clipPathUnits="userSpaceOnUse" id="clipPath124"><path d="M 0,0 H 595 V 842 H 0 Z" id="path122" inkscape:connector-curvature="0"/></clipPath><clipPath clipPathUnits="userSpaceOnUse" id="clipPath134"><path d="M 17.31724,842 V 0 H 577.6828 v 842 z" id="path132" inkscape:connector-curvature="0"/></clipPath><clipPath clipPathUnits="userSpaceOnUse" id="clipPath140"><path d="m 256.2369,328.0708 14.2095,22.7093 h 7e-4 l -14.2102,-22.7093" id="path138" inkscape:connector-curvature="0"/></clipPath><radialGradient fx="0" fy="0" cx="0" cy="0" r="1" gradientUnits="userSpaceOnUse" gradientTransform="matrix(0,-238.6054,-238.6054,0,299.4199,507.6766)" spreadMethod="pad" id="radialGradient154"><stop style="stop-opacity:1;stop-color:#8eafa6" offset="0" id="stop150"/><stop style="stop-opacity:1;stop-color:#75a197" offset="1" id="stop152"/></radialGradient><clipPath clipPathUnits="userSpaceOnUse" id="clipPath164"><path d="M 17.31724,842 V 0 H 577.6828 v 842 z" id="path162" inkscape:connector-curvature="0"/></clipPath><clipPath clipPathUnits="userSpaceOnUse" id="clipPath170"><path d="M 0,0 H 595 V 842 H 0 Z" id="path168" inkscape:connector-curvature="0"/></clipPath><clipPath clipPathUnits="userSpaceOnUse" id="clipPath180"><path d="M 17.31724,842 V 0 H 577.6828 v 842 z" id="path178" inkscape:connector-curvature="0"/></clipPath><clipPath clipPathUnits="userSpaceOnUse" id="clipPath186"><path d="m 229.9143,459.0047 c 0,7.0111 0.4732,14.0418 1.4001,21.0681 2.6763,20.2777 8.8309,41.9723 20.7459,58.9408 3.3063,4.7086 6.977,9.1611 11.0759,13.1809 35.5121,23.711 83.2557,26.1492 121.9383,2.3663 34.2012,-21.0268 53.0228,-57.4425 53.0228,-94.6764 0,-19.9931 -5.4302,-40.2258 -16.8204,-58.4297 -32.6043,-52.1045 -101.8943,-68.202 -154.4605,-35.8837 -3.4747,2.1362 -6.7861,4.4285 -9.94,6.8666 -9.5603,13.4466 -16.4865,29.0607 -21.042,44.6921 -4.0002,13.7253 -5.9201,27.7584 -5.9201,41.875 m 196.8784,5.6675 c 0,11.134 -2.5049,22.3435 -6.9574,32.4482 -5.8286,13.231 -16.9125,26.1049 -31.4595,29.862 -1.6441,0.4246 -3.4559,-0.94 -3.4559,-2.452 0,-0.5175 0.2127,-1.0532 0.7172,-1.5395 9.27,-8.9383 17.4054,-18.3912 22.4705,-30.3215 3.9,-9.1857 4.8981,-18.733 4.8981,-28.3942 0,-4.6797 -0.2337,-9.3854 -0.4856,-14.0919 -0.006,-0.1133 -0.009,-0.2258 -0.009,-0.3368 -7e-4,-6.5596 10.4125,-9.1916 12.1872,-2.2466 1.422,5.5601 2.0941,11.3068 2.0941,17.0723" id="path184" inkscape:connector-curvature="0"/></clipPath><radialGradient fx="0" fy="0" cx="0" cy="0" r="1" gradientUnits="userSpaceOnUse" gradientTransform="matrix(0,-238.6054,-238.6054,0,299.4199,507.6766)" spreadMethod="pad" id="radialGradient200"><stop style="stop-opacity:1;stop-color:#d0e4df" offset="0" id="stop196"/><stop style="stop-opacity:1;stop-color:#c1dcd6" offset="1" id="stop198"/></radialGradient><clipPath clipPathUnits="userSpaceOnUse" id="clipPath210"><path d="M 17.31724,842 V 0 H 577.6828 v 842 z" id="path208" inkscape:connector-curvature="0"/></clipPath><clipPath clipPathUnits="userSpaceOnUse" id="clipPath216"><path d="m 213.7936,460.2474 c 7e-4,19.9931 5.4302,40.2258 16.8204,58.4297 8.6109,13.7601 19.7783,25.0081 32.5222,33.5174 -4.0989,-4.0198 -7.7696,-8.4723 -11.0759,-13.1809 -11.915,-16.9685 -18.0696,-38.6631 -20.7459,-58.9408 -0.9269,-7.0263 -1.4001,-14.057 -1.4001,-21.0681 0,-14.1166 1.9199,-28.1497 5.9201,-41.875 4.5555,-15.6314 11.4817,-31.2455 21.042,-44.6921 -27.8869,21.5661 -43.0843,54.3591 -43.0828,87.8098" id="path214" inkscape:connector-curvature="0"/></clipPath><radialGradient fx="0" fy="0" cx="0" cy="0" r="1" gradientUnits="userSpaceOnUse" gradientTransform="matrix(0,-238.6054,-238.6054,0,299.4199,507.6766)" spreadMethod="pad" id="radialGradient230"><stop style="stop-opacity:1;stop-color:#aabbb7" offset="0" id="stop226"/><stop style="stop-opacity:1;stop-color:#9eb4af" offset="1" id="stop228"/></radialGradient><clipPath clipPathUnits="userSpaceOnUse" id="clipPath240"><path d="M 17.31724,842 V 0 H 577.6828 v 842 z" id="path238" inkscape:connector-curvature="0"/></clipPath><clipPath clipPathUnits="userSpaceOnUse" id="clipPath246"><path d="M 0,0 H 595 V 842 H 0 Z" id="path244" inkscape:connector-curvature="0"/></clipPath><clipPath clipPathUnits="userSpaceOnUse" id="clipPath262"><path d="M 17.31724,842 V 0 H 577.6828 v 842 z" id="path260" inkscape:connector-curvature="0"/></clipPath><clipPath clipPathUnits="userSpaceOnUse" id="clipPath268"><path d="m 384.9199,524.5304 c 0,1.512 1.8118,2.8766 3.4559,2.452 14.547,-3.7571 25.6309,-16.631 31.4595,-29.862 4.4525,-10.1047 6.9574,-21.3142 6.9574,-32.4482 0,-5.7655 -0.6721,-11.5122 -2.0941,-17.0723 -1.7747,-6.945 -12.1879,-4.313 -12.1872,2.2466 0,0.111 0.003,0.2235 0.009,0.3368 0.2519,4.7065 0.4856,9.4122 0.4856,14.0919 0,9.6612 -0.9981,19.2085 -4.8981,28.3942 -5.0651,11.9303 -13.2005,21.3832 -22.4705,30.3215 -0.5045,0.4863 -0.7172,1.022 -0.7172,1.5395" id="path266" inkscape:connector-curvature="0"/></clipPath><radialGradient fx="0" fy="0" cx="0" cy="0" r="1" gradientUnits="userSpaceOnUse" gradientTransform="matrix(0,-238.6054,-238.6054,0,299.4199,507.6766)" spreadMethod="pad" id="radialGradient282"><stop style="stop-opacity:1;stop-color:#edf5f3" offset="0" id="stop278"/><stop style="stop-opacity:1;stop-color:#e7f1ef" offset="1" id="stop280"/></radialGradient><clipPath clipPathUnits="userSpaceOnUse" id="clipPath292"><path d="M 17.31724,842 V 0 H 577.6828 v 842 z" id="path290" inkscape:connector-curvature="0"/></clipPath><clipPath clipPathUnits="userSpaceOnUse" id="clipPath298"><path d="M 0,0 H 595 V 842 H 0 Z" id="path296" inkscape:connector-curvature="0"/></clipPath></defs><sodipodi:namedview pagecolor="#ffffff" bordercolor="#666666" borderopacity="1" objecttolerance="10" gridtolerance="10" guidetolerance="10" inkscape:pageopacity="0" inkscape:pageshadow="2" inkscape:window-width="1420" inkscape:window-height="865" id="namedview4" showgrid="false" fit-margin-top="0" fit-margin-left="0" fit-margin-right="0" fit-margin-bottom="0" inkscape:zoom="0.64798565" inkscape:cx="538.49541" inkscape:cy="276.91301" inkscape:window-x="0" inkscape:window-y="0" inkscape:window-maximized="0" inkscape:current-layer="g10"/><g id="g10" inkscape:groupmode="layer" inkscape:label="28516" transform="matrix(1.3333333,0,0,-1.3333333,99.792289,805.23909)"><g id="g12" transform="rotate(90,297.5,421)"/><g id="g14" transform="matrix(0,0.70048747,-0.8857733,0,670.93828,199.29015)"><g id="g16" clip-path="url(#clipPath20)"><g id="g22" clip-path="url(#clipPath26)"><g id="g28" clip-path="url(#clipPath32)"><path d="M 577.6537,841.9564 V 0.9363621 H 17.31724 V 841.9564 Z" style="fill:#8fc5b8;fill-opacity:1;fill-rule:nonzero;stroke:none" id="path34" inkscape:connector-curvature="0"/></g></g></g></g><ellipse style="opacity:0.22000002;fill:#376b5e;fill-opacity:1;stroke:none;stroke-width:6.48417616;stroke-linecap:square;stroke-linejoin:miter;stroke-miterlimit:1.41420996;stroke-dasharray:none;stroke-opacity:1" id="path1497" cx="238.24141" cy="-294.75586" transform="scale(1,-1)" rx="138.31325" ry="20.833796"/><g style="clip-rule:evenodd;fill-rule:evenodd;stroke-linejoin:round;stroke-miterlimit:1.41420996" id="g1321" transform="matrix(0.27173729,0.0354791,0.0354791,-0.27173729,22.931167,474.19207)"><g serif:id="Layer 1" id="Layer-1"><g id="g1259" transform="translate(1009.4,506.362)"><path id="path1257" style="fill:#a52b00;fill-rule:nonzero" d="m 0,-7.203 -12.072,-25.006 c 0.063,-0.947 0.111,-1.898 0.111,-2.853 0,-28.346 -29.478,-54.471 -79.069,-75.389 v 17.393 c -4.836,-1.919 -9.871,-3.787 -15.117,-5.593 v -8.108 c -70.874,-25.56 -176.383,-41.778 -294.241,-41.778 -102.973,0 -196.529,12.38 -265.791,32.554 v 28.246 h -0.002 v -34.188 c -70.96,22.55 -114.954,53.877 -114.954,88.515 0,5.46 1.101,10.838 3.217,16.113 l -7.228,12.867 c 0,0 -5.792,7.512 4.406,23.362 8.994,13.977 54.048,68.685 77.827,97.335 10.214,14.687 17.141,23.734 17.746,22.859 0.955,-1.386 -6.351,-28.961 -26.635,-60.423 -9.466,-16.895 -20.768,-39.283 -27.554,-55.819 18.942,11.99 130.23,68.029 357.232,67.801 231.994,-0.232 335.115,-72.851 346.433,-82.737 -3.955,15.889 -17.468,48.033 -28.245,70.638 -17.706,32.331 -24.12,60.478 -23.296,61.87 0.524,0.878 6.565,-8.441 15.476,-23.543 C -51.025,87.37 -11.739,30.974 -3.889,16.608 5.007,0.323 0,-7.203 0,-7.203" inkscape:connector-curvature="0"/></g><g id="g1263" transform="translate(1079.49,294.885)"><path id="path1261" style="fill:#f74c00;fill-rule:nonzero" d="m 0,204.135 -79.343,-58.446 c -0.745,-2.6 -1.49,-5.201 -2.26,-7.781 l 26.062,-37.754 c 2.66,-3.84 3.196,-8.832 1.469,-13.211 -1.731,-4.358 -5.515,-7.482 -9.99,-8.247 l -44.066,-7.479 c -1.709,-3.485 -3.498,-6.916 -5.294,-10.319 L -94.907,18.51 c 1.903,-4.317 1.505,-9.335 -1.022,-13.254 -2.517,-3.937 -6.786,-6.237 -11.338,-6.058 l -44.724,1.625 c -2.315,-3.016 -4.667,-6.003 -7.067,-8.937 l 10.278,-45.432 c 1.042,-4.612 -0.274,-9.443 -3.487,-12.794 -3.195,-3.339 -7.838,-4.722 -12.253,-3.639 l -43.562,10.709 c -2.82,-2.493 -5.688,-4.953 -8.588,-7.365 l 1.567,-46.641 c 0.168,-4.721 -2.033,-9.208 -5.812,-11.829 -3.777,-2.636 -8.57,-3.032 -12.701,-1.074 l -40.638,19.321 c -3.273,-1.878 -6.565,-3.737 -9.892,-5.537 l -7.181,-45.961 c -0.729,-4.656 -3.724,-8.612 -7.919,-10.418 -4.185,-1.817 -8.976,-1.228 -12.648,1.536 l -36.232,27.185 c -3.569,-1.185 -7.153,-2.32 -10.779,-3.407 l -15.617,-43.585 c -1.588,-4.443 -5.25,-7.706 -9.716,-8.624 -4.45,-0.909 -9.028,0.632 -12.114,4.08 l -30.499,34.119 c -3.685,-0.423 -7.377,-0.81 -11.076,-1.131 l -23.549,-39.676 c -2.384,-4.018 -6.597,-6.464 -11.139,-6.464 -4.529,0 -8.75,2.446 -11.118,6.464 l -23.555,39.676 c -3.701,0.321 -7.408,0.708 -11.088,1.131 l -30.499,-34.119 c -3.09,-3.448 -7.684,-4.989 -12.122,-4.08 -4.46,0.93 -8.128,4.181 -9.707,8.624 l -15.629,43.585 c -3.621,1.087 -7.205,2.23 -10.78,3.407 l -36.22,-27.185 c -3.683,-2.774 -8.478,-3.361 -12.668,-1.536 -4.181,1.806 -7.188,5.762 -7.913,10.418 l -7.186,45.961 c -3.322,1.8 -6.614,3.649 -9.895,5.537 l -40.634,-19.321 c -4.127,-1.966 -8.945,-1.562 -12.704,1.074 -3.773,2.621 -5.98,7.108 -5.81,11.829 l 1.562,46.641 c -2.894,2.412 -5.756,4.872 -8.591,7.365 l -43.554,-10.709 c -4.423,-1.074 -9.062,0.3 -12.265,3.639 -3.221,3.351 -4.526,8.182 -3.491,12.794 l 10.257,45.432 c -2.378,2.945 -4.733,5.921 -7.042,8.937 l -44.724,-1.625 c -4.513,-0.135 -8.821,2.121 -11.343,6.058 -2.527,3.919 -2.91,8.937 -1.029,13.254 l 18.528,42.388 c -1.799,3.403 -3.586,6.834 -5.309,10.319 l -44.063,7.479 c -4.479,0.754 -8.252,3.876 -9.994,8.247 -1.728,4.379 -1.167,9.371 1.474,13.211 l 26.066,37.754 c -0.201,0.667 -0.387,1.339 -0.587,2.008 l -73.696,78.285 c 0,0 -11.296,8.851 5.147,29.654 14.5,18.351 88.951,91.096 128.271,129.205 16.606,19.348 27.984,31.329 29.172,30.293 1.876,-1.645 -7.972,-36.847 -40.682,-78.149 -25.216,-37.056 -57.941,-94.049 -50.267,-100.618 0,0 8.729,-11.081 26.242,-19.057 0.641,0.512 -0.662,-0.507 0,0 0,0 369.595,170.491 712.429,2.884 39.164,-7.025 62.873,13.955 62.873,13.955 8.176,4.74 -12.996,63.344 -30.407,102.137 -23.679,44.05 -27.151,78.422 -25.144,79.614 1.268,0.757 9.883,-12.353 22.172,-33.217 C -67.814,332.649 -10.492,252.1 0,232.534 11.895,210.352 0,204.135 0,204.135" inkscape:connector-curvature="0"/></g><g id="g1267" transform="translate(917.896,244.679)"><path id="path1265" style="fill:#f74c00;fill-rule:nonzero" d="m 0,232.466 c 0,0 53.179,-2.466 123.032,-73.462 l 9.898,-21.979 c 0,0 -108.417,-107.848 60.118,-182.291 0,0 -14.755,24.112 -10.426,117.272 0,0 50.815,-17.649 65.714,-99.94 0,0 74.12,97.724 -80.502,189.377 0,0 -72.54,116.289 -174.805,105.15 z" inkscape:connector-curvature="0"/></g><g id="g1271" transform="translate(676.997,488.361)"><path id="path1269" style="fill-rule:nonzero" d="m 0,-78.192 c 0,0 36.935,-40.443 73.871,0 0,0 29.022,53.927 0,80.887 0,0 -47.487,37.748 -73.871,0 0,0 -31.658,-29.659 0,-80.887" inkscape:connector-curvature="0"/></g><g id="g1275" transform="translate(719.761,425.169)"><path id="path1273" style="fill:#ffffff;fill-rule:nonzero" d="m 0,0.004 c 0,15.746 -9.282,28.514 -20.732,28.514 -11.448,0 -20.73,-12.768 -20.73,-28.514 0,-15.75 9.282,-28.518 20.73,-28.518 C -9.282,-28.514 0,-15.746 0,0.004" inkscape:connector-curvature="0"/></g><g id="g1279" transform="translate(512.148,482.736)"><path id="path1277" style="fill-rule:nonzero" d="m 0,-83.609 c 0,0 63.355,-28.052 80.648,34.562 0,0 18.114,72.98 -52.03,77.099 0,0 -89.444,-17.228 -28.618,-111.661" inkscape:connector-curvature="0"/></g><g id="g1283" transform="translate(543.968,426.204)"><path id="path1281" style="fill:#ffffff;fill-rule:nonzero" d="m 0,0.002 c 0,16.239 -9.572,29.409 -21.381,29.409 -11.804,0 -21.379,-13.17 -21.379,-29.409 0,-16.244 9.575,-29.411 21.379,-29.411 C -9.572,-29.409 0,-16.242 0,0.002" inkscape:connector-curvature="0"/></g><g id="g1287" transform="translate(593.317,576.574)"><path id="path1285" style="fill-rule:nonzero" d="m 0,-40.271 80.796,-6.484 c 0,0 -2.738,13.006 -13.279,22.769 0,0 -27.79,30.47 -59.673,-2.533 0,0 -5.217,-5.629 -7.844,-13.752" inkscape:connector-curvature="0"/></g><g id="g1291" transform="translate(269.796,270.778)"><path id="path1289" style="fill:#f74c00;fill-rule:nonzero" d="m 0,190.741 c -0.667,0 -1.321,0.049 -1.973,0.101 -26.234,-5.971 -99.973,-25.185 -119.464,-56.363 0,0 99.227,-112.872 -55.86,-185.019 l 18.057,124.878 c 0,0 -47.809,-31.949 -58.126,-101.346 0,0 -116.423,84.494 51.384,165.474 0,0 15.22,57.187 161.349,102.815 l 0.107,-0.435 c 1.471,0.272 2.977,0.435 4.526,0.435 13.808,0 25.003,-11.312 25.003,-25.271 0,-13.956 -11.195,-25.269 -25.003,-25.269" inkscape:connector-curvature="0"/></g></g></g><g id="g174" transform="rotate(110.54277,303.38005,411.34646)" style="opacity:0.322"><g id="g176" clip-path="url(#clipPath180)"><g id="g182" clip-path="url(#clipPath186)"><g id="g188"><g id="g194"><path d="M 0,0 H 595 V 842 H 0 Z" style="fill:url(#radialGradient200);stroke:none" id="path202" inkscape:connector-curvature="0"/></g></g></g></g></g><g id="g204" transform="rotate(110.54277,303.38005,411.34646)" style="opacity:0.22000002"><g id="g206" clip-path="url(#clipPath210)"><g id="g212" clip-path="url(#clipPath216)"><g id="g218"><g id="g224"><path d="M 0,0 H 595 V 842 H 0 Z" style="fill:url(#radialGradient230);stroke:none" id="path232" inkscape:connector-curvature="0"/></g></g></g></g></g><path inkscape:connector-curvature="0" id="path254" style="fill:#153e49;fill-opacity:1;fill-rule:nonzero;stroke:none" d="m 140.60552,437.59116 c -11.81765,-60.56349 27.57081,-119.79941 87.80307,-132.04661 60.23277,-12.24627 118.84888,27.06264 130.6665,87.62623 11.81738,60.56424 -27.5708,119.79941 -87.80306,132.04661 C 211.0393,537.46356 152.42249,498.1545 140.60552,437.59116 M 370.02845,390.94387 C 357.02637,324.30727 292.53206,281.05629 226.25996,294.53136 159.9882,308.0058 116.6491,373.18184 129.65127,439.81847 c 13.00274,66.63685 77.49739,109.88721 143.77004,96.41236 66.27176,-13.47444 109.60922,-78.65035 96.60714,-145.28696"/><g id="g256" transform="rotate(110.54277,303.38005,411.34646)"><g id="g258" clip-path="url(#clipPath262)"><g id="g264" clip-path="url(#clipPath268)"><g id="g270"><g id="g276"><path d="M 0,0 H 595 V 842 H 0 Z" style="fill:url(#radialGradient282);stroke:none" id="path284" inkscape:connector-curvature="0"/></g></g></g></g></g><path inkscape:connector-curvature="0" id="path300" style="fill:#ba656d;fill-opacity:1;fill-rule:nonzero;stroke:none" d="m 210.01669,519.88362 c -57.15232,-21.41701 -86.07157,-85.749 -64.46531,-143.40633 21.60675,-57.65863 85.68206,-87.14224 142.83438,-65.72522 57.15231,21.41701 86.07081,85.74872 64.46406,143.40736 -21.60626,57.65732 -85.68082,87.14121 -142.83313,65.72419 z m 79.12811,-211.1571 c -58.26028,-21.83221 -123.57668,8.22272 -145.60193,66.99811 -22.02499,58.77475 7.45425,124.35299 65.71452,146.1852 58.26019,21.83217 123.57594,-8.223 145.60094,-66.99774 22.02524,-58.7754 -7.45334,-124.3534 -65.71353,-146.18557"/><g id="g112" transform="rotate(110.54277,303.38005,411.34646)"><g id="g114" clip-path="url(#clipPath118)"><g id="g120" clip-path="url(#clipPath124)"><path d="m 209.2831,253.0341 -25.0865,15.4238 64.3781,102.883 25.0873,-15.4231 -64.3789,-102.8837" style="fill:#5d7a7f;fill-opacity:1;fill-rule:nonzero;stroke:none" id="path126" inkscape:connector-curvature="0"/></g></g></g><g id="g128" transform="rotate(110.54277,303.38005,411.34646)"><g id="g130" clip-path="url(#clipPath134)"><g id="g136" clip-path="url(#clipPath140)"><g id="g142"><g id="g148"><path d="M 0,0 H 595 V 842 H 0 Z" style="fill:url(#radialGradient154);stroke:none" id="path156" inkscape:connector-curvature="0"/></g></g></g></g></g><g id="g158" transform="rotate(110.54277,303.38005,411.34646)"><g id="g160" clip-path="url(#clipPath164)"><g id="g166" clip-path="url(#clipPath170)"><path d="m 244.5556,309.4031 2.8469,56.2731 c 4.2179,-3.4434 8.7161,-6.6489 13.485,-9.5806 3.1343,-1.9272 6.3259,-3.699 9.5589,-5.3155 l -25.8908,-41.377" style="fill:#4c6468;fill-opacity:1;fill-rule:nonzero;stroke:none" id="path172" inkscape:connector-curvature="0"/></g></g></g><path inkscape:connector-curvature="0" id="path248" style="fill:#153e49;fill-opacity:1;fill-rule:nonzero;stroke:none" d="m 595.80561,345.46593 -2.43078,-12.45915 c -1.60643,-8.23187 -9.54574,-13.55566 -17.73193,-11.89099 l -121.92,24.78911 c -1.34665,0.27365 -2.22397,1.59288 -1.95942,2.94702 l 7.29088,37.36675 c 0.26455,1.35414 1.56984,2.22933 2.91585,1.95544 L 583.89023,363.3849 c 8.18686,-1.66442 13.52182,-9.6871 11.91538,-17.91897"/><path inkscape:connector-curvature="0" id="path250" style="fill:#f7d77f;fill-opacity:1;fill-rule:nonzero;stroke:none" d="m 483.16836,384.81689 -8.24806,-42.26949 -5.05455,1.02746 8.24808,42.2694 5.05453,-1.02737"/><path inkscape:connector-curvature="0" id="path252" style="fill:#f7d77f;fill-opacity:1;fill-rule:nonzero;stroke:none" d="m 495.24213,382.09049 -8.24774,-42.27002 -5.05415,1.02836 8.24733,42.26912 5.05456,-1.02746"/></g></svg>